#!OML:ASF E:\emotionWalksFemale\Project 1\Capture day 1\Session 1\Female1.ASF
:FULLY-SPECIFIED
:DEGREES
539
root 11.0106 12.6861 7.3767 -323.602 -72.2573 -12.6315
lowerback 32.9225 -0.167359 0.349339
upperback -3.76742 -0.164591 -0.247212
thorax -22.0446 -0.141574 -0.393491
lowerneck -7.99169 -8.40336 -10.9645
upperneck -25.9154 -10.2329 13.307
head -5.19439 -5.49491 6.29194
rclavicle 4.13472e-014 3.26007e-014
rhumerus -30.7854 3.97247 -85.3984
rradius 32.052
rwrist 9.8105
rhand 2.83172 -46.7484
rfingers 7.12502
rthumb 28.2997 -74.6304
lclavicle 4.13472e-014 3.26007e-014
lhumerus -37.6717 30.1356 65.3105
lradius 33.1151
lwrist -10.9035
lhand 5.11806 -42.5528
lfingers 7.12502
lthumb 30.4826 -15.054
rfemur -64.5731 6.62525 32.8467
rtibia 82.9347
rfoot -36.8014 -33.5316
rtoes -3.75232
lfemur -74.4735 -6.13341 -12.302
ltibia 85.6635
lfoot -36.6674 6.53814
ltoes -21.2884
540
root 10.9985 12.6815 7.38245 -323.294 -72.986 -12.8717
lowerback 32.3011 -0.142961 0.290039
upperback -3.73828 -0.15762 -0.252518
thorax -21.6966 -0.130856 -0.370883
lowerneck -8.11369 -8.31077 -10.9986
upperneck -25.7787 -10.107 13.2593
head -5.14884 -5.42572 6.2718
rclavicle -4.37326e-015 -3.29983e-014
rhumerus -31.6524 5.37355 -85.0202
rradius 32.5544
rwrist 8.9211
rhand 2.82945 -47.7092
rfingers 7.12502
rthumb 28.2976 -75.5916
lclavicle -4.37326e-015 -3.29983e-014
lhumerus -37.9001 28.9519 63.8147
lradius 32.929
lwrist -9.90878
lhand 5.59498 -42.2871
lfingers 7.12502
lthumb 30.9373 -14.8737
rfemur -64.6644 6.90179 32.6571
rtibia 83.0516
rfoot -36.9536 -33.1868
rtoes -3.16635
lfemur -74.3589 -5.76808 -12.5491
ltibia 85.7456
lfoot -36.8762 6.49669
ltoes -19.9429
541
root 10.9884 12.6899 7.38989 -323.839 -73.5568 -12.5273
lowerback 32.167 -0.180123 0.178842
upperback -3.70449 -0.246867 -0.226253
thorax -21.5849 -0.15059 -0.236589
lowerneck -8.19118 -8.16527 -11.063
upperneck -25.7295 -9.91345 13.2016
head -5.14554 -5.32143 6.26398
rclavicle 6.75868e-015 -7.95139e-016
rhumerus -32.1083 5.29114 -83.9985
rradius 32.3564
rwrist 9.09179
rhand 2.95309 -47.7446
rfingers 7.12502
rthumb 28.4157 -75.6074
lclavicle 6.75868e-015 -7.95139e-016
lhumerus -38.313 28.3176 62.205
lradius 32.9122
lwrist -9.50575
lhand 5.80352 -42.1337
lfingers 7.12502
lthumb 31.1361 -14.7583
rfemur -64.4051 6.71446 32.4443
rtibia 83.108
rfoot -37.3363 -32.4431
rtoes -1.93334
lfemur -73.8821 -5.69332 -12.9002
ltibia 85.6866
lfoot -36.9744 6.29515
ltoes -18.065
542
root 10.9827 12.7014 7.39462 -324.425 -74.1286 -12.0978
lowerback 32.0345 -0.177152 0.107262
upperback -3.72482 -0.269812 -0.219523
thorax -21.5455 -0.150328 -0.178697
lowerneck -8.13597 -8.03814 -11.2172
upperneck -25.7211 -9.75495 13.1158
head -5.1699 -5.22478 6.26976
rclavicle -3.61788e-014 5.1684e-014
rhumerus -32.4648 4.09548 -82.5
rradius 31.8796
rwrist 9.9211
rhand 3.02154 -47.6014
rfingers 7.12502
rthumb 28.4811 -75.4532
lclavicle -3.61788e-014 5.1684e-014
lhumerus -38.973 28.2928 60.4694
lradius 33.2444
lwrist -9.76746
lhand 6.02684 -41.8348
lfingers 7.12502
lthumb 31.3489 -14.5004
rfemur -64.1768 6.61227 32.2113
rtibia 83.0989
rfoot -37.1854 -32.2831
rtoes -2.29658
lfemur -73.4248 -5.53916 -13.3048
ltibia 85.5736
lfoot -36.9799 6.24712
ltoes -17.1755
543
root 10.9801 12.7114 7.39618 -325.037 -74.7024 -11.4975
lowerback 31.7151 -0.173431 0.0612465
upperback -3.77616 -0.297411 -0.292977
thorax -21.4541 -0.161341 -0.225508
lowerneck -8.16049 -7.92549 -11.0255
upperneck -25.674 -9.65104 12.8489
head -5.19435 -5.17151 6.15333
rclavicle -3.22031e-014 -5.80451e-014
rhumerus -32.8959 2.4235 -80.8995
rradius 31.4988
rwrist 10.8336
rhand 3.09558 -47.4971
rfingers 7.12502
rthumb 28.5519 -75.337
lclavicle -3.22031e-014 -5.80451e-014
lhumerus -39.6007 28.0275 58.7683
lradius 33.7978
lwrist -9.6649
lhand 6.28562 -41.3731
lfingers 7.12502
lthumb 31.5954 -14.0868
rfemur -64.1405 6.62591 31.9204
rtibia 83.0655
rfoot -36.7036 -32.3881
rtoes -3.43457
lfemur -73.1287 -5.35179 -13.7159
ltibia 85.3993
lfoot -37.0562 6.02313
ltoes -15.8348
544
root 10.971 12.7289 7.40468 -325.668 -75.2221 -10.8956
lowerback 31.341 -0.238619 -0.00166633
upperback -3.82982 -0.423111 -0.368568
thorax -21.3377 -0.209732 -0.219534
lowerneck -8.2223 -7.72297 -10.5251
upperneck -25.6268 -9.445 12.5031
head -5.2439 -5.09009 5.96269
rclavicle -8.34896e-015 -2.70347e-014
rhumerus -33.6298 1.62427 -79.5571
rradius 31.6892
rwrist 10.7842
rhand 3.25597 -47.7656
rfingers 7.12502
rthumb 28.7051 -75.5797
lclavicle -8.34896e-015 -2.70347e-014
lhumerus -40.065 27.4852 57.0845
lradius 34.0162
lwrist -8.88766
lhand 6.09272 -40.9216
lfingers 7.12502
lthumb 31.4117 -13.5994
rfemur -64.0229 6.59547 31.6035
rtibia 82.9546
rfoot -36.775 -31.9218
rtoes -2.59752
lfemur -72.7465 -5.29621 -14.0635
ltibia 85.1349
lfoot -37.1337 6.04194
ltoes -15.1086
545
root 10.953 12.7586 7.41965 -326.113 -75.8519 -10.5608
lowerback 30.9158 -0.295727 -0.219278
upperback -3.84523 -0.589337 -0.402428
thorax -21.1414 -0.253362 -0.0620354
lowerneck -8.47338 -7.40465 -9.96083
upperneck -25.3903 -9.07271 12.1131
head -5.22514 -4.92476 5.73091
rclavicle 3.77691e-014 -7.55382e-015
rhumerus -34.3134 1.27535 -78.2947
rradius 31.954
rwrist 10.4535
rhand 2.73015 -48.4092
rfingers 7.12502
rthumb 28.2027 -76.3073
lclavicle 3.77691e-014 -7.55382e-015
lhumerus -40.38 27.1907 55.2823
lradius 33.5748
lwrist -8.03422
lhand 5.9618 -40.6119
lfingers 7.12502
lthumb 31.2869 -13.2655
rfemur -63.6873 6.55884 31.3048
rtibia 82.6908
rfoot -37.2006 -31.2059
rtoes -0.889206
lfemur -72.1445 -5.12199 -14.4327
ltibia 84.7776
lfoot -37.1741 6.11356
ltoes -14.6244
546
root 10.9358 12.8015 7.42975 -326.518 -76.6018 -10.3853
lowerback 30.6412 -0.211854 -0.535733
upperback -3.87232 -0.593549 -0.37935
thorax -21.0332 -0.215948 0.14044
lowerneck -8.72003 -7.16777 -9.70785
upperneck -25.0421 -8.7854 11.7959
head -5.14022 -4.77537 5.56441
rclavicle -1.11319e-014 -5.92378e-014
rhumerus -34.8926 0.194929 -76.5652
rradius 31.8938
rwrist 10.8674
rhand 2.37649 -48.6318
rfingers 7.12502
rthumb 27.8646 -76.5852
lclavicle -1.11319e-014 -5.92378e-014
lhumerus -41.3324 27.0063 53.6426
lradius 34.0506
lwrist -7.65101
lhand 6.53679 -40.2354
lfingers 7.12502
lthumb 31.8347 -12.9965
rfemur -63.136 6.61011 31.0124
rtibia 82.2801
rfoot -37.2462 -30.7358
rtoes -0.4309
lfemur -71.2929 -4.82278 -14.8115
ltibia 84.289
lfoot -37.1894 6.23885
ltoes -14.8268
547
root 10.9217 12.849 7.43818 -327.013 -77.2159 -10.1554
lowerback 30.4677 -0.116651 -0.698863
upperback -3.94948 -0.512634 -0.309826
thorax -21.0436 -0.157632 0.272461
lowerneck -8.7046 -6.96868 -9.77955
upperneck -24.8315 -8.53422 11.5907
head -5.11299 -4.62571 5.50542
rclavicle -2.10712e-014 -5.84427e-014
rhumerus -35.5815 -1.24874 -74.4769
rradius 31.6899
rwrist 11.826
rhand 2.56107 -48.3905
rfingers 7.12502
rthumb 28.0411 -76.3151
lclavicle -2.10712e-014 -5.84427e-014
lhumerus -42.2396 27.0359 51.9681
lradius 34.5386
lwrist -7.69569
lhand 7.1851 -40.1462
lfingers 7.12502
lthumb 32.4519 -13.032
rfemur -62.5121 6.60899 30.7884
rtibia 81.7792
rfoot -36.6492 -30.7624
rtoes -1.68473
lfemur -70.3698 -4.65848 -15.1458
ltibia 83.6753
lfoot -37.0623 7.09056
ltoes -17.7741
548
root 10.9056 12.8962 7.45079 -327.497 -77.6793 -9.86609
lowerback 30.1153 -0.0783786 -0.678801
upperback -4.01713 -0.439141 -0.264292
thorax -20.9516 -0.126291 0.278317
lowerneck -8.72226 -6.79791 -9.82415
upperneck -24.5977 -8.32295 11.3631
head -5.07164 -4.4958 5.43122
rclavicle 1.19271e-015 -2.22639e-014
rhumerus -36.4362 -2.20452 -72.4951
rradius 31.5959
rwrist 12.6246
rhand 2.86057 -48.0006
rfingers 7.12502
rthumb 28.3273 -75.878
lclavicle 1.19271e-015 -2.22639e-014
lhumerus -42.916 25.5697 51.068
lradius 35.3831
lwrist -6.00237
lhand 7.58067 -39.5967
lfingers 7.12502
lthumb 32.8282 -12.5604
rfemur -61.9172 6.45981 30.6354
rtibia 81.2052
rfoot -36.076 -30.7376
rtoes -2.94733
lfemur -69.5359 -4.57579 -15.4512
ltibia 82.9984
lfoot -36.849 7.64376
ltoes -19.0716
549
root 10.8864 12.9483 7.46609 -328.091 -78.1576 -9.5236
lowerback 29.7254 -0.0371208 -0.567774
upperback -4.0544 -0.342712 -0.292403
thorax -20.8006 -0.102748 0.139508
lowerneck -8.7384 -6.71993 -9.77864
upperneck -24.3825 -8.23849 11.1699
head -5.02431 -4.43934 5.35152
rclavicle 2.54444e-014 1.98785e-015
rhumerus -37.4229 -2.89405 -70.6245
rradius 31.6386
rwrist 13.1813
rhand 3.23252 -47.902
rfingers 7.12502
rthumb 28.6827 -75.7199
lclavicle 2.54444e-014 1.98785e-015
lhumerus -43.4006 24.4434 50.0425
lradius 35.776
lwrist -4.98687
lhand 7.81855 -39.5944
lfingers 7.12502
lthumb 33.0545 -12.6057
rfemur -61.191 6.40972 30.4061
rtibia 80.5582
rfoot -35.8658 -30.4957
rtoes -3.21796
lfemur -68.6034 -4.50247 -15.7191
ltibia 82.2664
lfoot -36.8207 6.96569
ltoes -15.4359
550
root 10.8639 13.0078 7.48515 -329.123 -78.6197 -8.85503
lowerback 29.3915 -0.059226 -0.433257
upperback -4.0493 -0.328438 -0.342431
thorax -20.6221 -0.117157 0.000493228
lowerneck -8.74496 -6.55296 -9.46665
upperneck -24.2174 -8.09592 10.6759
head -5.03095 -4.3595 5.13759
rclavicle 7.95139e-015 1.51076e-014
rhumerus -38.2511 -3.89552 -68.6827
rradius 31.5858
rwrist 13.9198
rhand 3.20514 -48.4436
rfingers 7.12502
rthumb 28.6566 -76.2659
lclavicle 7.95139e-015 1.51076e-014
lhumerus -43.8063 23.5163 48.8661
lradius 35.7408
lwrist -4.68314
lhand 7.89886 -39.8601
lfingers 7.12502
lthumb 33.1309 -12.8876
rfemur -60.2756 6.38625 30.0689
rtibia 79.8351
rfoot -35.5802 -30.3906
rtoes -3.64873
lfemur -67.4849 -4.53167 -16.0402
ltibia 81.4527
lfoot -36.8453 6.37445
ltoes -11.8102
